<svg xmlns="http://www.w3.org/2000/svg" viewBox="0 0 512 512" fill="none" stroke="white" stroke-width="8" stroke-linecap="round" stroke-linejoin="round">
  <!--
    Brain circuit logo — top-down view, two hemispheres
    Scalloped outer edge, central trunk, branches with circuit nodes
    White on transparent background
  -->

  <!-- Left hemisphere scalloped outline -->
  <path d="
    M256 460
    C240 460, 225 440, 215 420
    C200 395, 180 375, 155 360
    C130 340, 100 310, 80 280
    C60 250, 45 220, 40 190
    C35 160, 38 130, 50 105
    C60 80, 78 60, 100 48
    C122 36, 145 32, 168 36
    C190 40, 210 52, 225 70
    C238 85, 248 105, 252 130
    C254 150, 256 170, 256 190
  " fill="none"/>

  <!-- Left hemisphere bumps -->
  <path d="
    M40 190 C28 190, 20 170, 22 150 C24 132, 35 115, 50 105
  " fill="none"/>
  <path d="
    M80 280 C62 285, 45 270, 42 250 C39 232, 45 215, 58 200
  " fill="none"/>
  <path d="
    M155 360 C135 368, 115 358, 105 340 C95 322, 98 305, 108 290
  " fill="none"/>
  <path d="
    M100 48 C90 36, 95 22, 112 16 C130 10, 150 16, 168 36
  " fill="none"/>
  <path d="
    M50 105 C40 92, 35 72, 42 58 C50 44, 65 36, 82 34
  " fill="none"/>

  <!-- Right hemisphere scalloped outline -->
  <path d="
    M256 460
    C272 460, 287 440, 297 420
    C312 395, 332 375, 357 360
    C382 340, 412 310, 432 280
    C452 250, 467 220, 472 190
    C477 160, 474 130, 462 105
    C452 80, 434 60, 412 48
    C390 36, 367 32, 344 36
    C322 40, 302 52, 287 70
    C274 85, 264 105, 260 130
    C258 150, 256 170, 256 190
  " fill="none"/>

  <!-- Right hemisphere bumps -->
  <path d="
    M472 190 C484 190, 492 170, 490 150 C488 132, 477 115, 462 105
  " fill="none"/>
  <path d="
    M432 280 C450 285, 467 270, 470 250 C473 232, 467 215, 454 200
  " fill="none"/>
  <path d="
    M357 360 C377 368, 397 358, 407 340 C417 322, 414 305, 404 290
  " fill="none"/>
  <path d="
    M412 48 C422 36, 417 22, 400 16 C382 10, 362 16, 344 36
  " fill="none"/>
  <path d="
    M462 105 C472 92, 477 72, 470 58 C462 44, 447 36, 430 34
  " fill="none"/>

  <!-- Central trunk -->
  <line x1="256" y1="130" x2="256" y2="430" stroke-width="9"/>

  <!-- === LEFT BRANCHES (organic, curved) === -->

  <!-- Left branch 1 — top -->
  <path d="M256 180 C230 170, 190 155, 150 130" stroke-width="7"/>
  <path d="M190 155 C175 140, 155 125, 130 105" stroke-width="5.5"/>
  <path d="M150 130 C130 135, 105 148, 85 170" stroke-width="5.5"/>
  <circle cx="150" cy="130" r="10" fill="white" stroke="none"/>
  <circle cx="130" cy="105" r="8" fill="white" stroke="none"/>
  <circle cx="85" cy="170" r="8" fill="white" stroke="none"/>

  <!-- Left branch 2 — middle -->
  <path d="M256 250 C225 245, 185 240, 140 255" stroke-width="7"/>
  <path d="M185 242 C168 225, 145 205, 115 195" stroke-width="5.5"/>
  <path d="M140 255 C120 268, 95 285, 80 305" stroke-width="5.5"/>
  <circle cx="140" cy="255" r="10" fill="white" stroke="none"/>
  <circle cx="115" cy="195" r="8" fill="white" stroke="none"/>
  <circle cx="80" cy="305" r="8" fill="white" stroke="none"/>

  <!-- Left branch 3 — lower -->
  <path d="M256 330 C235 325, 210 322, 180 335" stroke-width="6"/>
  <path d="M210 323 C198 308, 180 292, 160 285" stroke-width="5"/>
  <circle cx="180" cy="335" r="9" fill="white" stroke="none"/>
  <circle cx="160" cy="285" r="7" fill="white" stroke="none"/>

  <!-- Left branch 4 — bottom -->
  <path d="M256 390 C240 385, 225 378, 210 365" stroke-width="5"/>
  <circle cx="210" cy="365" r="7" fill="white" stroke="none"/>

  <!-- === RIGHT BRANCHES (angular, circuit-like) === -->

  <!-- Right branch 1 — top -->
  <path d="M256 180 L310 155 L370 130" stroke-width="7"/>
  <path d="M310 155 L335 125 L365 105" stroke-width="5.5"/>
  <path d="M370 130 L400 148 L430 170" stroke-width="5.5"/>
  <circle cx="370" cy="130" r="10" fill="white" stroke="none"/>
  <circle cx="365" cy="105" r="8" fill="white" stroke="none"/>
  <circle cx="430" cy="170" r="8" fill="white" stroke="none"/>

  <!-- Right branch 2 — middle -->
  <path d="M256 250 L320 242 L375 255" stroke-width="7"/>
  <path d="M320 242 L348 220 L395 195" stroke-width="5.5"/>
  <path d="M375 255 L405 272 L432 305" stroke-width="5.5"/>
  <circle cx="375" cy="255" r="10" fill="white" stroke="none"/>
  <circle cx="395" cy="195" r="8" fill="white" stroke="none"/>
  <circle cx="432" cy="305" r="8" fill="white" stroke="none"/>

  <!-- Right branch 3 — lower -->
  <path d="M256 330 L310 323 L340 335" stroke-width="6"/>
  <path d="M310 323 L330 305 L355 285" stroke-width="5"/>
  <circle cx="340" cy="335" r="9" fill="white" stroke="none"/>
  <circle cx="355" cy="285" r="7" fill="white" stroke="none"/>

  <!-- Right branch 4 — bottom -->
  <path d="M256 390 L285 380 L308 365" stroke-width="5"/>
  <circle cx="308" cy="365" r="7" fill="white" stroke="none"/>
</svg>