<svg xmlns="http://www.w3.org/2000/svg" viewBox="0 0 500 460" fill="white" stroke="white" stroke-linecap="round" stroke-linejoin="round">
  <!--
    Brain circuit logo — top-down view, wide rounded cloud shape.
    NOT a heart. Wide at top and middle, rounded at bottom.
    White on transparent.
  -->

  <!-- ============================================ -->
  <!--  OUTER BRAIN SHAPE — wide cloud/oval         -->
  <!--  The brain is WIDER than tall, rounded bottom -->
  <!-- ============================================ -->

  <!-- Main brain outline — single continuous scalloped path -->
  <!-- Starting top-center, going clockwise -->
  <path d="
    M250 42
    C260 42, 270 38, 278 32
    C290 22, 305 20, 320 24
    C338 30, 352 42, 365 58
    C372 48, 385 42, 398 50
    C415 60, 428 78, 435 100
    C442 95, 452 102, 458 118
    C468 140, 470 165, 462 188
    C470 195, 475 208, 472 222
    C468 248, 455 270, 435 288
    C442 298, 448 310, 438 322
    C422 342, 400 355, 378 362
    C372 372, 368 382, 355 388
    C335 398, 312 402, 290 398
    C275 394, 262 388, 250 378
  " fill="none" stroke-width="7"/>

  <!-- Left hemisphere (mirror) -->
  <path d="
    M250 42
    C240 42, 230 38, 222 32
    C210 22, 195 20, 180 24
    C162 30, 148 42, 135 58
    C128 48, 115 42, 102 50
    C85 60, 72 78, 65 100
    C58 95, 48 102, 42 118
    C32 140, 30 165, 38 188
    C30 195, 25 208, 28 222
    C32 248, 45 270, 65 288
    C58 298, 52 310, 62 322
    C78 342, 100 355, 122 362
    C128 372, 132 382, 145 388
    C165 398, 188 402, 210 398
    C225 394, 238 388, 250 378
  " fill="none" stroke-width="7"/>

  <!-- ============================================ -->
  <!--  CENTRAL TRUNK                               -->
  <!-- ============================================ -->
  <line x1="250" y1="42" x2="250" y2="378" stroke-width="9"/>

  <!-- ============================================ -->
  <!--  LEFT BRANCHES (organic, curved)             -->
  <!-- ============================================ -->

  <!-- Branch L1 — top -->
  <path d="M250 95 C218 82, 178 68, 138 52" fill="none" stroke-width="6"/>
  <path d="M178 70 C162 55, 142 42, 118 35" fill="none" stroke-width="4.5"/>
  <path d="M138 52 C118 60, 95 78, 78 100" fill="none" stroke-width="4.5"/>
  <circle cx="138" cy="52" r="9" stroke="none"/>
  <circle cx="118" cy="35" r="7" stroke="none"/>
  <circle cx="78" cy="100" r="7" stroke="none"/>

  <!-- Branch L2 — upper mid -->
  <path d="M250 168 C212 158, 168 152, 118 168" fill="none" stroke-width="6"/>
  <path d="M168 154 C148 135, 122 118, 92 110" fill="none" stroke-width="4.5"/>
  <path d="M118 168 C95 182, 72 205, 58 232" fill="none" stroke-width="4.5"/>
  <circle cx="118" cy="168" r="9" stroke="none"/>
  <circle cx="92" cy="110" r="7" stroke="none"/>
  <circle cx="58" cy="232" r="7" stroke="none"/>

  <!-- Branch L3 — lower mid -->
  <path d="M250 255 C220 248, 185 245, 148 260" fill="none" stroke-width="5.5"/>
  <path d="M185 247 C170 228, 148 212, 122 205" fill="none" stroke-width="4.5"/>
  <path d="M148 260 C130 275, 110 292, 95 312" fill="none" stroke-width="4.5"/>
  <circle cx="148" cy="260" r="8" stroke="none"/>
  <circle cx="122" cy="205" r="7" stroke="none"/>
  <circle cx="95" cy="312" r="7" stroke="none"/>

  <!-- Branch L4 — bottom -->
  <path d="M250 328 C228 322, 208 312, 188 298" fill="none" stroke-width="5"/>
  <path d="M208 314 C195 302, 178 292, 158 288" fill="none" stroke-width="4"/>
  <circle cx="188" cy="298" r="7" stroke="none"/>
  <circle cx="158" cy="288" r="6" stroke="none"/>

  <!-- ============================================ -->
  <!--  RIGHT BRANCHES (angular, circuit-like)      -->
  <!-- ============================================ -->

  <!-- Branch R1 — top -->
  <path d="M250 95 L295 78 L362 52" fill="none" stroke-width="6"/>
  <path d="M295 78 L322 52 L382 35" fill="none" stroke-width="4.5"/>
  <path d="M362 52 L388 72 L422 100" fill="none" stroke-width="4.5"/>
  <circle cx="362" cy="52" r="9" stroke="none"/>
  <circle cx="382" cy="35" r="7" stroke="none"/>
  <circle cx="422" cy="100" r="7" stroke="none"/>

  <!-- Branch R2 — upper mid -->
  <path d="M250 168 L305 156 L382 168" fill="none" stroke-width="6"/>
  <path d="M305 156 L338 130 L408 110" fill="none" stroke-width="4.5"/>
  <path d="M382 168 L410 188 L442 232" fill="none" stroke-width="4.5"/>
  <circle cx="382" cy="168" r="9" stroke="none"/>
  <circle cx="408" cy="110" r="7" stroke="none"/>
  <circle cx="442" cy="232" r="7" stroke="none"/>

  <!-- Branch R3 — lower mid -->
  <path d="M250 255 L298 248 L352 260" fill="none" stroke-width="5.5"/>
  <path d="M298 248 L325 225 L378 205" fill="none" stroke-width="4.5"/>
  <path d="M352 260 L378 278 L405 312" fill="none" stroke-width="4.5"/>
  <circle cx="352" cy="260" r="8" stroke="none"/>
  <circle cx="378" cy="205" r="7" stroke="none"/>
  <circle cx="405" cy="312" r="7" stroke="none"/>

  <!-- Branch R4 — bottom -->
  <path d="M250 328 L285 318 L312 298" fill="none" stroke-width="5"/>
  <path d="M285 318 L310 305 L342 288" fill="none" stroke-width="4"/>
  <circle cx="312" cy="298" r="7" stroke="none"/>
  <circle cx="342" cy="288" r="6" stroke="none"/>

</svg>