<svg xmlns="http://www.w3.org/2000/svg" viewBox="0 0 400 440" fill="white">
  <!-- Brain circuit logo - white on transparent -->

  <!-- Left hemisphere outline (scalloped brain shape) -->
  <path d="
    M200 430
    C200 430, 195 400, 190 370
    C185 340, 170 320, 155 300
    C135 275, 110 260, 90 235
    C65 205, 45 175, 40 145
    C35 120, 38 95, 48 75
    C58 55, 75 40, 95 30
    C115 20, 138 18, 158 22
    C175 26, 188 35, 195 50
    C198 58, 200 70, 200 80
  " fill="none" stroke="white" stroke-width="6"/>

  <!-- Right hemisphere outline (scalloped brain shape) -->
  <path d="
    M200 430
    C200 430, 205 400, 210 370
    C215 340, 230 320, 245 300
    C265 275, 290 260, 310 235
    C335 205, 355 175, 360 145
    C365 120, 362 95, 352 75
    C342 55, 325 40, 305 30
    C285 20, 262 18, 242 22
    C225 26, 212 35, 205 50
    C202 58, 200 70, 200 80
  " fill="none" stroke="white" stroke-width="6"/>

  <!-- Brain bumps - left side -->
  <path d="
    M40 145 C25 145, 18 130, 20 115 C22 100, 32 90, 48 75
    M90 235 C70 240, 52 230, 48 215 C44 200, 50 185, 65 175
    M155 300 C140 310, 120 305, 110 290 C100 275, 102 260, 110 250
    M95 30 C85 20, 90 8, 105 5 C120 2, 140 8, 158 22
    M48 75 C38 68, 30 55, 35 42 C40 30, 55 22, 75 20
  " fill="none" stroke="white" stroke-width="6"/>

  <!-- Brain bumps - right side -->
  <path d="
    M360 145 C375 145, 382 130, 380 115 C378 100, 368 90, 352 75
    M310 235 C330 240, 348 230, 352 215 C356 200, 350 185, 335 175
    M245 300 C260 310, 280 305, 290 290 C300 275, 298 260, 290 250
    M305 30 C315 20, 310 8, 295 5 C280 2, 260 8, 242 22
    M352 75 C362 68, 370 55, 365 42 C360 30, 345 22, 325 20
  " fill="none" stroke="white" stroke-width="6"/>

  <!-- Central stem -->
  <line x1="200" y1="80" x2="200" y2="380" stroke="white" stroke-width="5"/>

  <!-- Left branches (organic, curved) -->
  <!-- Branch 1 - top left -->
  <path d="M200 120 C180 110, 150 100, 120 80" fill="none" stroke="white" stroke-width="4"/>
  <path d="M150 100 C140 85, 125 75, 105 60" fill="none" stroke="white" stroke-width="3"/>
  <path d="M120 80 C105 82, 85 90, 70 105" fill="none" stroke="white" stroke-width="3"/>
  <circle cx="120" cy="80" r="6"/>
  <circle cx="70" cy="105" r="5"/>
  <circle cx="105" cy="60" r="5"/>

  <!-- Branch 2 - mid left -->
  <path d="M200 190 C175 185, 145 180, 110 190" fill="none" stroke="white" stroke-width="4"/>
  <path d="M145 182 C130 170, 110 155, 85 150" fill="none" stroke="white" stroke-width="3"/>
  <path d="M110 190 C95 200, 75 215, 65 230" fill="none" stroke="white" stroke-width="3"/>
  <circle cx="110" cy="190" r="6"/>
  <circle cx="85" cy="150" r="5"/>
  <circle cx="65" cy="230" r="5"/>

  <!-- Branch 3 - lower left -->
  <path d="M200 270 C180 265, 155 265, 130 275" fill="none" stroke="white" stroke-width="4"/>
  <path d="M155 266 C145 255, 130 240, 115 235" fill="none" stroke="white" stroke-width="3"/>
  <circle cx="130" cy="275" r="6"/>
  <circle cx="115" cy="235" r="5"/>

  <!-- Branch 4 - bottom left -->
  <path d="M200 340 C185 335, 170 328, 160 315" fill="none" stroke="white" stroke-width="3"/>
  <circle cx="160" cy="315" r="5"/>

  <!-- Right branches (angular, circuit-like) -->
  <!-- Branch 1 - top right -->
  <path d="M200 120 L240 100 L280 80" fill="none" stroke="white" stroke-width="4"/>
  <path d="M240 100 L255 70 L275 55" fill="none" stroke="white" stroke-width="3"/>
  <path d="M280 80 L310 95 L330 110" fill="none" stroke="white" stroke-width="3"/>
  <circle cx="280" cy="80" r="6"/>
  <circle cx="275" cy="55" r="5"/>
  <circle cx="330" cy="110" r="5"/>

  <!-- Branch 2 - mid right -->
  <path d="M200 190 L245 182 L290 190" fill="none" stroke="white" stroke-width="4"/>
  <path d="M245 182 L265 160 L290 148" fill="none" stroke="white" stroke-width="3"/>
  <path d="M290 190 L315 205 L335 225" fill="none" stroke="white" stroke-width="3"/>
  <circle cx="290" cy="190" r="6"/>
  <circle cx="290" cy="148" r="5"/>
  <circle cx="335" cy="225" r="5"/>

  <!-- Branch 3 - lower right -->
  <path d="M200 270 L250 266 L275 275" fill="none" stroke="white" stroke-width="4"/>
  <path d="M250 266 L268 248 L285 238" fill="none" stroke="white" stroke-width="3"/>
  <circle cx="275" cy="275" r="6"/>
  <circle cx="285" cy="238" r="5"/>

  <!-- Branch 4 - bottom right -->
  <path d="M200 340 L225 332 L245 318" fill="none" stroke="white" stroke-width="3"/>
  <circle cx="245" cy="318" r="5"/>
</svg>