<svg xmlns="http://www.w3.org/2000/svg" viewBox="0 0 400 420" fill="white" stroke="white" stroke-linecap="round" stroke-linejoin="round">
  <!--
    Brain circuit logo — closely matching the original reference image.
    White on transparent. Scalloped brain outline, central trunk,
    left = organic curves, right = angular circuits. Nodes at endpoints.
  -->

  <!-- ============================================ -->
  <!--  OUTER BRAIN SHAPE (scalloped/cloud edge)    -->
  <!-- ============================================ -->

  <!-- Left hemisphere outline with bumps -->
  <path d="
    M200 395
    C195 380, 188 355, 180 335
    C172 310, 158 295, 140 278
    C120 258, 98 240, 78 215
    C58 190, 42 168, 35 145
    C28 120, 30 98, 38 78
    C48 55, 65 38, 90 26
    C112 16, 138 14, 160 20
    C178 25, 192 38, 200 58
  " fill="none" stroke="white" stroke-width="8"/>

  <!-- Left bumps (scalloped edge) -->
  <path d="M35 145 C20 148, 12 132, 15 115 C18 100, 28 88, 38 78" fill="none" stroke="white" stroke-width="8"/>
  <path d="M78 215 C58 222, 42 210, 38 192 C34 176, 40 162, 52 148" fill="none" stroke="white" stroke-width="8"/>
  <path d="M140 278 C118 288, 98 278, 90 260 C82 244, 86 228, 95 215" fill="none" stroke="white" stroke-width="8"/>
  <path d="M180 335 C164 342, 148 332, 142 316 C136 300, 140 288, 150 275" fill="none" stroke="white" stroke-width="8"/>
  <path d="M90 26 C78 16, 82 4, 100 0 C118 -3, 140 4, 160 20" fill="none" stroke="white" stroke-width="8"/>
  <path d="M38 78 C28 66, 24 48, 32 36 C40 24, 55 18, 72 16" fill="none" stroke="white" stroke-width="8"/>

  <!-- Right hemisphere outline with bumps -->
  <path d="
    M200 395
    C205 380, 212 355, 220 335
    C228 310, 242 295, 260 278
    C280 258, 302 240, 322 215
    C342 190, 358 168, 365 145
    C372 120, 370 98, 362 78
    C352 55, 335 38, 310 26
    C288 16, 262 14, 240 20
    C222 25, 208 38, 200 58
  " fill="none" stroke="white" stroke-width="8"/>

  <!-- Right bumps -->
  <path d="M365 145 C380 148, 388 132, 385 115 C382 100, 372 88, 362 78" fill="none" stroke="white" stroke-width="8"/>
  <path d="M322 215 C342 222, 358 210, 362 192 C366 176, 360 162, 348 148" fill="none" stroke="white" stroke-width="8"/>
  <path d="M260 278 C282 288, 302 278, 310 260 C318 244, 314 228, 305 215" fill="none" stroke="white" stroke-width="8"/>
  <path d="M220 335 C236 342, 252 332, 258 316 C264 300, 260 288, 250 275" fill="none" stroke="white" stroke-width="8"/>
  <path d="M310 26 C322 16, 318 4, 300 0 C282 -3, 260 4, 240 20" fill="none" stroke="white" stroke-width="8"/>
  <path d="M362 78 C372 66, 376 48, 368 36 C360 24, 345 18, 328 16" fill="none" stroke="white" stroke-width="8"/>

  <!-- ============================================ -->
  <!--  CENTRAL TRUNK                               -->
  <!-- ============================================ -->
  <line x1="200" y1="58" x2="200" y2="370" stroke="white" stroke-width="10" fill="none"/>

  <!-- ============================================ -->
  <!--  LEFT BRANCHES (organic, curved)             -->
  <!-- ============================================ -->

  <!-- Branch L1 — top -->
  <path d="M200 105 C170 95, 135 80, 100 58" fill="none" stroke-width="7"/>
  <!-- sub-branch from L1 -->
  <path d="M135 82 C120 68, 100 55, 78 42" fill="none" stroke-width="5"/>
  <!-- sub-branch down from L1 endpoint -->
  <path d="M100 58 C82 65, 62 80, 50 100" fill="none" stroke-width="5"/>
  <!-- nodes -->
  <circle cx="100" cy="58" r="9" stroke="none"/>
  <circle cx="78" cy="42" r="7" stroke="none"/>
  <circle cx="50" cy="100" r="7" stroke="none"/>

  <!-- Branch L2 — upper mid -->
  <path d="M200 170 C168 162, 130 155, 90 168" fill="none" stroke-width="7"/>
  <!-- sub-branch up -->
  <path d="M130 157 C115 140, 95 125, 72 118" fill="none" stroke-width="5"/>
  <!-- sub-branch down -->
  <path d="M90 168 C72 180, 55 200, 48 222" fill="none" stroke-width="5"/>
  <!-- nodes -->
  <circle cx="90" cy="168" r="9" stroke="none"/>
  <circle cx="72" cy="118" r="7" stroke="none"/>
  <circle cx="48" cy="222" r="7" stroke="none"/>

  <!-- Branch L3 — lower mid -->
  <path d="M200 248 C175 242, 150 240, 120 252" fill="none" stroke-width="6"/>
  <!-- sub-branch -->
  <path d="M150 241 C138 225, 120 210, 100 205" fill="none" stroke-width="5"/>
  <!-- nodes -->
  <circle cx="120" cy="252" r="8" stroke="none"/>
  <circle cx="100" cy="205" r="7" stroke="none"/>

  <!-- Branch L4 — bottom -->
  <path d="M200 315 C182 310, 168 302, 155 288" fill="none" stroke-width="5"/>
  <circle cx="155" cy="288" r="7" stroke="none"/>

  <!-- ============================================ -->
  <!--  RIGHT BRANCHES (angular, circuit-like)      -->
  <!-- ============================================ -->

  <!-- Branch R1 — top -->
  <path d="M200 105 L245 88 L300 58" fill="none" stroke-width="7"/>
  <!-- sub-branch from R1 -->
  <path d="M245 88 L270 62 L298 42" fill="none" stroke-width="5"/>
  <!-- sub-branch from endpoint -->
  <path d="M300 58 L325 72 L350 100" fill="none" stroke-width="5"/>
  <!-- nodes -->
  <circle cx="300" cy="58" r="9" stroke="none"/>
  <circle cx="298" cy="42" r="7" stroke="none"/>
  <circle cx="350" cy="100" r="7" stroke="none"/>

  <!-- Branch R2 — upper mid -->
  <path d="M200 170 L252 160 L310 168" fill="none" stroke-width="7"/>
  <!-- sub-branch up -->
  <path d="M252 160 L278 135 L328 118" fill="none" stroke-width="5"/>
  <!-- sub-branch down -->
  <path d="M310 168 L335 185 L352 222" fill="none" stroke-width="5"/>
  <!-- nodes -->
  <circle cx="310" cy="168" r="9" stroke="none"/>
  <circle cx="328" cy="118" r="7" stroke="none"/>
  <circle cx="352" cy="222" r="7" stroke="none"/>

  <!-- Branch R3 — lower mid -->
  <path d="M200 248 L255 241 L280 252" fill="none" stroke-width="6"/>
  <!-- sub-branch -->
  <path d="M255 241 L275 220 L300 205" fill="none" stroke-width="5"/>
  <!-- nodes -->
  <circle cx="280" cy="252" r="8" stroke="none"/>
  <circle cx="300" cy="205" r="7" stroke="none"/>

  <!-- Branch R4 — bottom -->
  <path d="M200 315 L228 305 L245 288" fill="none" stroke-width="5"/>
  <circle cx="245" cy="288" r="7" stroke="none"/>

</svg>